<mxfile host="app.diagrams.net" agent="Mozilla/5.0 (Windows NT 10.0; Win64; x64) AppleWebKit/537.36 (KHTML, like Gecko) Chrome/134.0.0.0 Safari/537.36" version="26.2.4">
  <diagram name="Page-1" id="c4acf3e9-155e-7222-9cf6-157b1a14988f">
    <mxGraphModel dx="3872" dy="2602" grid="1" gridSize="10" guides="1" tooltips="1" connect="1" arrows="1" fold="1" page="1" pageScale="1" pageWidth="850" pageHeight="1100" background="none" math="0" shadow="0">
      <root>
        <mxCell id="0" />
        <mxCell id="1" parent="0" />
        <mxCell id="0Trdpa9B81bJb4oL63DD-2" value="&lt;p style=&quot;margin:0px;margin-top:4px;text-align:center;&quot;&gt;&lt;b&gt;ZakładBukmacherski&lt;/b&gt;&lt;/p&gt;&lt;hr size=&quot;1&quot; style=&quot;border-style:solid;&quot;&gt;&lt;p style=&quot;margin:0px;margin-left:4px;&quot;&gt;- nazwa: String&lt;/p&gt;&lt;p style=&quot;margin:0px;margin-left:4px;&quot;&gt;- rodzaj: String&lt;/p&gt;&lt;p style=&quot;margin:0px;margin-left:4px;&quot;&gt;- dataKoncaObstawiania: Date&lt;/p&gt;&lt;p style=&quot;margin:0px;margin-left:4px;&quot;&gt;# idZakladu: Integer&lt;/p&gt;&lt;hr size=&quot;1&quot; style=&quot;border-style:solid;&quot;&gt;&lt;p style=&quot;margin:0px;margin-left:4px;&quot;&gt;+ dodajZaklad()&lt;/p&gt;&lt;p style=&quot;margin:0px;margin-left:4px;&quot;&gt;+ usunZaklad()&lt;/p&gt;&lt;p style=&quot;margin:0px;margin-left:4px;&quot;&gt;+ rozliczZaklad()&lt;/p&gt;&lt;p style=&quot;margin:0px;margin-left:4px;&quot;&gt;+ sprawdzWynik()&lt;/p&gt;" style="verticalAlign=top;align=left;overflow=fill;html=1;whiteSpace=wrap;" vertex="1" parent="1">
          <mxGeometry x="-465" y="-850" width="190" height="170" as="geometry" />
        </mxCell>
        <mxCell id="0Trdpa9B81bJb4oL63DD-8" value="&lt;p style=&quot;margin:0px;margin-top:4px;text-align:center;&quot;&gt;&lt;b&gt;Użytkownik&lt;/b&gt;&lt;/p&gt;&lt;hr size=&quot;1&quot; style=&quot;border-style:solid;&quot;&gt;&lt;p style=&quot;margin:0px;margin-left:4px;&quot;&gt;# eMail: String&lt;/p&gt;&lt;p style=&quot;margin:0px;margin-left:4px;&quot;&gt;# haslo: String&lt;/p&gt;&lt;p style=&quot;margin:0px;margin-left:4px;&quot;&gt;- login: String&lt;/p&gt;&lt;hr size=&quot;1&quot; style=&quot;border-style:solid;&quot;&gt;&lt;p style=&quot;margin:0px;margin-left:4px;&quot;&gt;+ zaloguj()&lt;/p&gt;" style="verticalAlign=top;align=left;overflow=fill;html=1;whiteSpace=wrap;" vertex="1" parent="1">
          <mxGeometry x="-425" y="-410" width="160" height="110" as="geometry" />
        </mxCell>
        <mxCell id="0Trdpa9B81bJb4oL63DD-9" value="&lt;p style=&quot;margin:0px;margin-top:4px;text-align:center;&quot;&gt;&lt;b&gt;Klient&lt;/b&gt;&lt;/p&gt;&lt;hr size=&quot;1&quot; style=&quot;border-style:solid;&quot;&gt;&lt;p style=&quot;margin:0px;margin-left:4px;&quot;&gt;# dataUr: Date&lt;/p&gt;&lt;p style=&quot;margin:0px;margin-left:4px;&quot;&gt;# pesel: Integer&lt;/p&gt;&lt;p style=&quot;margin:0px;margin-left:4px;&quot;&gt;# imie: String&lt;/p&gt;&lt;p style=&quot;margin:0px;margin-left:4px;&quot;&gt;# nazwisko: String&lt;/p&gt;&lt;hr size=&quot;1&quot; style=&quot;border-style:solid;&quot;&gt;&lt;p style=&quot;margin:0px;margin-left:4px;&quot;&gt;+ aktualizuj()&lt;/p&gt;" style="verticalAlign=top;align=left;overflow=fill;html=1;whiteSpace=wrap;" vertex="1" parent="1">
          <mxGeometry x="-565" y="-590" width="160" height="120" as="geometry" />
        </mxCell>
        <mxCell id="0Trdpa9B81bJb4oL63DD-10" value="&lt;div&gt;&lt;br&gt;&lt;/div&gt;&lt;div&gt;&lt;br&gt;&lt;/div&gt;" style="endArrow=block;endSize=16;endFill=0;html=1;rounded=0;exitX=1;exitY=0.5;exitDx=0;exitDy=0;entryX=0.5;entryY=0;entryDx=0;entryDy=0;" edge="1" parent="1" source="0Trdpa9B81bJb4oL63DD-9" target="0Trdpa9B81bJb4oL63DD-8">
          <mxGeometry x="-0.0328" y="3" width="160" relative="1" as="geometry">
            <mxPoint x="-830" y="-690" as="sourcePoint" />
            <mxPoint x="-810" y="-590" as="targetPoint" />
            <Array as="points">
              <mxPoint x="-345" y="-530" />
            </Array>
            <mxPoint as="offset" />
          </mxGeometry>
        </mxCell>
        <mxCell id="0Trdpa9B81bJb4oL63DD-12" value="" style="endArrow=none;html=1;endSize=12;startArrow=none;startSize=14;startFill=0;edgeStyle=orthogonalEdgeStyle;rounded=0;entryX=0.25;entryY=1;entryDx=0;entryDy=0;exitX=0.75;exitY=0;exitDx=0;exitDy=0;" edge="1" parent="1" source="0Trdpa9B81bJb4oL63DD-9" target="0Trdpa9B81bJb4oL63DD-2">
          <mxGeometry relative="1" as="geometry">
            <mxPoint x="-430" y="-710" as="sourcePoint" />
            <mxPoint x="-80" y="-800" as="targetPoint" />
          </mxGeometry>
        </mxCell>
        <mxCell id="0Trdpa9B81bJb4oL63DD-13" value="1" style="edgeLabel;resizable=0;html=1;align=left;verticalAlign=top;" connectable="0" vertex="1" parent="0Trdpa9B81bJb4oL63DD-12">
          <mxGeometry x="-1" relative="1" as="geometry">
            <mxPoint x="5" y="-30" as="offset" />
          </mxGeometry>
        </mxCell>
        <mxCell id="0Trdpa9B81bJb4oL63DD-14" value="0..*" style="edgeLabel;resizable=0;html=1;align=right;verticalAlign=top;" connectable="0" vertex="1" parent="0Trdpa9B81bJb4oL63DD-12">
          <mxGeometry x="1" relative="1" as="geometry">
            <mxPoint x="25" as="offset" />
          </mxGeometry>
        </mxCell>
        <mxCell id="0Trdpa9B81bJb4oL63DD-15" value="&lt;p style=&quot;margin:0px;margin-top:4px;text-align:center;&quot;&gt;&lt;b&gt;Recepcjonista&lt;/b&gt;&lt;/p&gt;&lt;hr size=&quot;1&quot; style=&quot;border-style:solid;&quot;&gt;&lt;p style=&quot;margin:0px;margin-left:4px;&quot;&gt;# dataUr: Date&lt;/p&gt;&lt;p style=&quot;margin:0px;margin-left:4px;&quot;&gt;# pesel: Integer&lt;/p&gt;&lt;p style=&quot;margin:0px;margin-left:4px;&quot;&gt;- idPracownika: Integer&lt;/p&gt;&lt;hr size=&quot;1&quot; style=&quot;border-style:solid;&quot;&gt;&lt;p style=&quot;margin:0px;margin-left:4px;&quot;&gt;+ aktualizuj()&lt;/p&gt;" style="verticalAlign=top;align=left;overflow=fill;html=1;whiteSpace=wrap;" vertex="1" parent="1">
          <mxGeometry x="-425" y="-235" width="160" height="110" as="geometry" />
        </mxCell>
        <mxCell id="0Trdpa9B81bJb4oL63DD-16" value="&lt;p style=&quot;margin:0px;margin-top:4px;text-align:center;&quot;&gt;&lt;b&gt;Krupier&lt;/b&gt;&lt;/p&gt;&lt;hr size=&quot;1&quot; style=&quot;border-style:solid;&quot;&gt;&lt;p style=&quot;margin:0px;margin-left:4px;&quot;&gt;# dataUr: Date&lt;/p&gt;&lt;p style=&quot;margin:0px;margin-left:4px;&quot;&gt;# pesel: Integer&lt;/p&gt;&lt;p style=&quot;margin:0px;margin-left:4px;&quot;&gt;- idPracownika: Integer&lt;/p&gt;&lt;hr size=&quot;1&quot; style=&quot;border-style:solid;&quot;&gt;&lt;p style=&quot;margin:0px;margin-left:4px;&quot;&gt;+ aktualizuj()&lt;/p&gt;" style="verticalAlign=top;align=left;overflow=fill;html=1;whiteSpace=wrap;" vertex="1" parent="1">
          <mxGeometry x="-195" y="-410" width="160" height="110" as="geometry" />
        </mxCell>
        <mxCell id="0Trdpa9B81bJb4oL63DD-18" value="&lt;div&gt;&lt;br&gt;&lt;/div&gt;&lt;div&gt;&lt;br&gt;&lt;/div&gt;" style="endArrow=block;endSize=16;endFill=0;html=1;rounded=0;exitX=0.5;exitY=0;exitDx=0;exitDy=0;entryX=0.5;entryY=1;entryDx=0;entryDy=0;" edge="1" parent="1" source="0Trdpa9B81bJb4oL63DD-15" target="0Trdpa9B81bJb4oL63DD-8">
          <mxGeometry x="-0.0328" y="3" width="160" relative="1" as="geometry">
            <mxPoint x="-550" y="-350" as="sourcePoint" />
            <mxPoint x="-415" y="-350" as="targetPoint" />
            <Array as="points" />
            <mxPoint as="offset" />
          </mxGeometry>
        </mxCell>
        <mxCell id="0Trdpa9B81bJb4oL63DD-19" value="&lt;div&gt;&lt;br&gt;&lt;/div&gt;&lt;div&gt;&lt;br&gt;&lt;/div&gt;" style="endArrow=block;endSize=16;endFill=0;html=1;rounded=0;exitX=0;exitY=0.5;exitDx=0;exitDy=0;entryX=1;entryY=0.5;entryDx=0;entryDy=0;" edge="1" parent="1" source="0Trdpa9B81bJb4oL63DD-16" target="0Trdpa9B81bJb4oL63DD-8">
          <mxGeometry x="-0.0328" y="3" width="160" relative="1" as="geometry">
            <mxPoint x="-345" y="-190" as="sourcePoint" />
            <mxPoint x="-335" y="-295" as="targetPoint" />
            <Array as="points" />
            <mxPoint as="offset" />
          </mxGeometry>
        </mxCell>
        <mxCell id="0Trdpa9B81bJb4oL63DD-20" value="&lt;p style=&quot;margin:0px;margin-top:4px;text-align:center;&quot;&gt;&lt;b&gt;Administrator&lt;/b&gt;&lt;/p&gt;&lt;hr size=&quot;1&quot; style=&quot;border-style:solid;&quot;&gt;&lt;p style=&quot;margin:0px;margin-left:4px;&quot;&gt;- poziomUprawnien: Byte&lt;/p&gt;&lt;hr size=&quot;1&quot; style=&quot;border-style:solid;&quot;&gt;&lt;p style=&quot;margin:0px;margin-left:4px;&quot;&gt;+ przyiszUprawnienia()&lt;/p&gt;" style="verticalAlign=top;align=left;overflow=fill;html=1;whiteSpace=wrap;" vertex="1" parent="1">
          <mxGeometry x="-660" y="-402.5" width="160" height="95" as="geometry" />
        </mxCell>
        <mxCell id="0Trdpa9B81bJb4oL63DD-21" value="&lt;div&gt;&lt;br&gt;&lt;/div&gt;&lt;div&gt;&lt;br&gt;&lt;/div&gt;" style="endArrow=block;endSize=16;endFill=0;html=1;rounded=0;exitX=1;exitY=0.5;exitDx=0;exitDy=0;entryX=0;entryY=0.5;entryDx=0;entryDy=0;" edge="1" parent="1" source="0Trdpa9B81bJb4oL63DD-20" target="0Trdpa9B81bJb4oL63DD-8">
          <mxGeometry x="-0.0328" y="3" width="160" relative="1" as="geometry">
            <mxPoint x="-185" y="-345" as="sourcePoint" />
            <mxPoint x="-255" y="-345" as="targetPoint" />
            <Array as="points" />
            <mxPoint as="offset" />
          </mxGeometry>
        </mxCell>
        <mxCell id="0Trdpa9B81bJb4oL63DD-22" value="&lt;p style=&quot;margin:0px;margin-top:4px;text-align:center;&quot;&gt;&lt;b&gt;KartaKredytowa&lt;/b&gt;&lt;/p&gt;&lt;hr size=&quot;1&quot; style=&quot;border-style:solid;&quot;&gt;&lt;p style=&quot;margin:0px;margin-left:4px;&quot;&gt;- typKarty: String&lt;/p&gt;&lt;p style=&quot;margin:0px;margin-left:4px;&quot;&gt;- nrKarty: Variant&lt;/p&gt;&lt;p style=&quot;margin:0px;margin-left:4px;&quot;&gt;- dataWaznosci: Date&lt;/p&gt;&lt;p style=&quot;margin:0px;margin-left:4px;&quot;&gt;- limit: Single&lt;/p&gt;&lt;hr size=&quot;1&quot; style=&quot;border-style:solid;&quot;&gt;&lt;p style=&quot;margin:0px;margin-left:4px;&quot;&gt;+ weryfikujDane()&lt;/p&gt;&lt;p style=&quot;margin:0px;margin-left:4px;&quot;&gt;+ obciaz()&lt;/p&gt;&lt;p style=&quot;margin:0px;margin-left:4px;&quot;&gt;+ przelej()&lt;/p&gt;" style="verticalAlign=top;align=left;overflow=fill;html=1;whiteSpace=wrap;" vertex="1" parent="1">
          <mxGeometry x="-790" y="-610" width="160" height="160" as="geometry" />
        </mxCell>
        <mxCell id="0Trdpa9B81bJb4oL63DD-23" value="" style="endArrow=none;html=1;endSize=12;startArrow=none;startSize=14;startFill=0;edgeStyle=orthogonalEdgeStyle;rounded=0;entryX=1;entryY=0.5;entryDx=0;entryDy=0;exitX=0;exitY=0.5;exitDx=0;exitDy=0;" edge="1" parent="1" source="0Trdpa9B81bJb4oL63DD-9" target="0Trdpa9B81bJb4oL63DD-22">
          <mxGeometry relative="1" as="geometry">
            <mxPoint x="-515" y="-390" as="sourcePoint" />
            <mxPoint x="-515" y="-480" as="targetPoint" />
          </mxGeometry>
        </mxCell>
        <mxCell id="0Trdpa9B81bJb4oL63DD-24" value="1" style="edgeLabel;resizable=0;html=1;align=left;verticalAlign=top;" connectable="0" vertex="1" parent="0Trdpa9B81bJb4oL63DD-23">
          <mxGeometry x="-1" relative="1" as="geometry">
            <mxPoint x="-15" as="offset" />
          </mxGeometry>
        </mxCell>
        <mxCell id="0Trdpa9B81bJb4oL63DD-25" value="0..*" style="edgeLabel;resizable=0;html=1;align=right;verticalAlign=top;" connectable="0" vertex="1" parent="0Trdpa9B81bJb4oL63DD-23">
          <mxGeometry x="1" relative="1" as="geometry">
            <mxPoint x="25" as="offset" />
          </mxGeometry>
        </mxCell>
        <mxCell id="0Trdpa9B81bJb4oL63DD-26" value="&lt;p style=&quot;margin:0px;margin-top:4px;text-align:center;&quot;&gt;&lt;b&gt;Kurs&lt;/b&gt;&lt;/p&gt;&lt;hr size=&quot;1&quot; style=&quot;border-style:solid;&quot;&gt;&lt;p style=&quot;margin:0px;margin-left:4px;&quot;&gt;- nazwaZwyciezcy: String&lt;/p&gt;&lt;p style=&quot;margin:0px;margin-left:4px;&quot;&gt;- akrualnyKurs: Double&lt;/p&gt;&lt;hr size=&quot;1&quot; style=&quot;border-style:solid;&quot;&gt;&lt;p style=&quot;margin:0px;margin-left:4px;&quot;&gt;+ obliczKurs()&lt;/p&gt;" style="verticalAlign=top;align=left;overflow=fill;html=1;whiteSpace=wrap;" vertex="1" parent="1">
          <mxGeometry x="-265" y="-660" width="160" height="90" as="geometry" />
        </mxCell>
        <mxCell id="0Trdpa9B81bJb4oL63DD-27" value="" style="endArrow=none;html=1;endSize=12;startArrow=none;startSize=14;startFill=0;edgeStyle=orthogonalEdgeStyle;rounded=0;entryX=1;entryY=0.75;entryDx=0;entryDy=0;exitX=0.25;exitY=0;exitDx=0;exitDy=0;" edge="1" parent="1" source="0Trdpa9B81bJb4oL63DD-26" target="0Trdpa9B81bJb4oL63DD-2">
          <mxGeometry relative="1" as="geometry">
            <mxPoint x="-65" y="-730" as="sourcePoint" />
            <mxPoint x="-485" y="-710" as="targetPoint" />
          </mxGeometry>
        </mxCell>
        <mxCell id="0Trdpa9B81bJb4oL63DD-28" value="2..*" style="edgeLabel;resizable=0;html=1;align=left;verticalAlign=top;" connectable="0" vertex="1" parent="0Trdpa9B81bJb4oL63DD-27">
          <mxGeometry x="-1" relative="1" as="geometry">
            <mxPoint x="-30" y="5" as="offset" />
          </mxGeometry>
        </mxCell>
        <mxCell id="0Trdpa9B81bJb4oL63DD-29" value="1" style="edgeLabel;resizable=0;html=1;align=right;verticalAlign=top;" connectable="0" vertex="1" parent="0Trdpa9B81bJb4oL63DD-27">
          <mxGeometry x="1" relative="1" as="geometry">
            <mxPoint x="25" y="-30" as="offset" />
          </mxGeometry>
        </mxCell>
        <mxCell id="0Trdpa9B81bJb4oL63DD-30" value="&lt;p style=&quot;margin:0px;margin-top:4px;text-align:center;&quot;&gt;&lt;b&gt;GraLosowa&lt;/b&gt;&lt;/p&gt;&lt;hr size=&quot;1&quot; style=&quot;border-style:solid;&quot;&gt;&lt;p style=&quot;margin:0px;margin-left:4px;&quot;&gt;-&amp;nbsp; nazwa: String&lt;/p&gt;&lt;p style=&quot;margin:0px;margin-left:4px;&quot;&gt;-&amp;nbsp; rodzaj: String&lt;/p&gt;&lt;p style=&quot;margin:0px;margin-left:4px;&quot;&gt;-&amp;nbsp; stawkaWejscia : Double&lt;/p&gt;&lt;p style=&quot;margin:0px;margin-left:4px;&quot;&gt;# idGry: Integer&lt;/p&gt;&lt;p style=&quot;margin:0px;margin-left:4px;&quot;&gt;-&amp;nbsp; idKrupiera: Integer&lt;/p&gt;&lt;hr size=&quot;1&quot; style=&quot;border-style:solid;&quot;&gt;&lt;p style=&quot;margin:0px;margin-left:4px;&quot;&gt;+ dodajGre()&lt;/p&gt;&lt;p style=&quot;margin:0px;margin-left:4px;&quot;&gt;+ usunGre()&lt;/p&gt;&lt;p style=&quot;margin:0px;margin-left:4px;&quot;&gt;+ rozliczGre()&lt;/p&gt;&lt;p style=&quot;margin:0px;margin-left:4px;&quot;&gt;+ sprawdzWynik()&lt;/p&gt;" style="verticalAlign=top;align=left;overflow=fill;html=1;whiteSpace=wrap;" vertex="1" parent="1">
          <mxGeometry x="-705" y="-850" width="190" height="180" as="geometry" />
        </mxCell>
        <mxCell id="0Trdpa9B81bJb4oL63DD-31" value="" style="endArrow=none;html=1;endSize=12;startArrow=none;startSize=14;startFill=0;edgeStyle=orthogonalEdgeStyle;rounded=0;entryX=0.789;entryY=1;entryDx=0;entryDy=0;exitX=0.25;exitY=0;exitDx=0;exitDy=0;entryPerimeter=0;" edge="1" parent="1" source="0Trdpa9B81bJb4oL63DD-9" target="0Trdpa9B81bJb4oL63DD-30">
          <mxGeometry relative="1" as="geometry">
            <mxPoint x="-510" y="-710" as="sourcePoint" />
            <mxPoint x="-225" y="-830" as="targetPoint" />
          </mxGeometry>
        </mxCell>
        <mxCell id="0Trdpa9B81bJb4oL63DD-32" value="1" style="edgeLabel;resizable=0;html=1;align=left;verticalAlign=top;" connectable="0" vertex="1" parent="0Trdpa9B81bJb4oL63DD-31">
          <mxGeometry x="-1" relative="1" as="geometry">
            <mxPoint x="5" y="-30" as="offset" />
          </mxGeometry>
        </mxCell>
        <mxCell id="0Trdpa9B81bJb4oL63DD-33" value="0..*" style="edgeLabel;resizable=0;html=1;align=right;verticalAlign=top;" connectable="0" vertex="1" parent="0Trdpa9B81bJb4oL63DD-31">
          <mxGeometry x="1" relative="1" as="geometry">
            <mxPoint x="25" as="offset" />
          </mxGeometry>
        </mxCell>
        <mxCell id="0Trdpa9B81bJb4oL63DD-34" value="&lt;p style=&quot;margin:0px;margin-top:4px;text-align:center;&quot;&gt;&lt;b&gt;Rozlicz&lt;/b&gt;&lt;/p&gt;&lt;hr size=&quot;1&quot; style=&quot;border-style:solid;&quot;&gt;&lt;p style=&quot;margin:0px;margin-left:4px;&quot;&gt;# nrTransakcji: Integer&lt;/p&gt;&lt;p style=&quot;margin:0px;margin-left:4px;&quot;&gt;# dataTransakcji: Date&lt;/p&gt;&lt;hr size=&quot;1&quot; style=&quot;border-style:solid;&quot;&gt;&lt;p style=&quot;margin:0px;margin-left:4px;&quot;&gt;+ sprawdzRezultat()&lt;/p&gt;&lt;p style=&quot;margin:0px;margin-left:4px;&quot;&gt;+ przelej()&lt;/p&gt;&lt;p style=&quot;margin:0px;margin-left:4px;&quot;&gt;&lt;br&gt;&lt;/p&gt;" style="verticalAlign=top;align=left;overflow=fill;html=1;whiteSpace=wrap;" vertex="1" parent="1">
          <mxGeometry x="-570" y="-1030" width="160" height="110" as="geometry" />
        </mxCell>
        <mxCell id="0Trdpa9B81bJb4oL63DD-35" value="" style="endArrow=none;html=1;endSize=12;startArrow=none;startSize=14;startFill=0;edgeStyle=orthogonalEdgeStyle;rounded=0;entryX=0.25;entryY=1;entryDx=0;entryDy=0;exitX=0.75;exitY=0;exitDx=0;exitDy=0;" edge="1" parent="1" source="0Trdpa9B81bJb4oL63DD-30" target="0Trdpa9B81bJb4oL63DD-34">
          <mxGeometry relative="1" as="geometry">
            <mxPoint x="-490" y="-500" as="sourcePoint" />
            <mxPoint x="-610" y="-660" as="targetPoint" />
          </mxGeometry>
        </mxCell>
        <mxCell id="0Trdpa9B81bJb4oL63DD-36" value="1" style="edgeLabel;resizable=0;html=1;align=left;verticalAlign=top;" connectable="0" vertex="1" parent="0Trdpa9B81bJb4oL63DD-35">
          <mxGeometry x="-1" relative="1" as="geometry">
            <mxPoint x="5" y="-30" as="offset" />
          </mxGeometry>
        </mxCell>
        <mxCell id="0Trdpa9B81bJb4oL63DD-37" value="0..*" style="edgeLabel;resizable=0;html=1;align=right;verticalAlign=top;" connectable="0" vertex="1" parent="0Trdpa9B81bJb4oL63DD-35">
          <mxGeometry x="1" relative="1" as="geometry">
            <mxPoint x="25" as="offset" />
          </mxGeometry>
        </mxCell>
        <mxCell id="0Trdpa9B81bJb4oL63DD-38" value="" style="endArrow=none;html=1;endSize=12;startArrow=none;startSize=14;startFill=0;edgeStyle=orthogonalEdgeStyle;rounded=0;entryX=0.75;entryY=1;entryDx=0;entryDy=0;exitX=0.25;exitY=0;exitDx=0;exitDy=0;" edge="1" parent="1" source="0Trdpa9B81bJb4oL63DD-2" target="0Trdpa9B81bJb4oL63DD-34">
          <mxGeometry relative="1" as="geometry">
            <mxPoint x="-617" y="-840" as="sourcePoint" />
            <mxPoint x="-510" y="-930" as="targetPoint" />
          </mxGeometry>
        </mxCell>
        <mxCell id="0Trdpa9B81bJb4oL63DD-39" value="1" style="edgeLabel;resizable=0;html=1;align=left;verticalAlign=top;" connectable="0" vertex="1" parent="0Trdpa9B81bJb4oL63DD-38">
          <mxGeometry x="-1" relative="1" as="geometry">
            <mxPoint x="5" y="-30" as="offset" />
          </mxGeometry>
        </mxCell>
        <mxCell id="0Trdpa9B81bJb4oL63DD-40" value="0..*" style="edgeLabel;resizable=0;html=1;align=right;verticalAlign=top;" connectable="0" vertex="1" parent="0Trdpa9B81bJb4oL63DD-38">
          <mxGeometry x="1" relative="1" as="geometry">
            <mxPoint x="25" as="offset" />
          </mxGeometry>
        </mxCell>
      </root>
    </mxGraphModel>
  </diagram>
</mxfile>
